<svg width="300" height="300" viewBox="0 0 300 300" fill="none" xmlns="http://www.w3.org/2000/svg">
<path d="M150 300C123 300 98 293.25 75 279.75C52 266.25 33.75 248 20.25 225C6.75 202 0 177 0 150C0 123 6.75 98 20.25 75C33.75 52 52 33.75 75 20.25C98 6.75 123 0 150 0C177 0 202 6.75 225 20.25C248 33.75 266.25 52 279.75 75C293.25 98 300 123 300 150C300 177 293.25 202 279.75 225C266.25 248 248 266.25 225 279.75C202 293.25 177 300 150 300ZM150 174L198 222L222 198L174 150L222 102L198 78L150 126L102 78L78 102L126 150L78 198L102 222L150 174Z" fill="#DC3545"/>
</svg>
