<svg width="300" height="300" viewBox="0 0 300 300" fill="none" xmlns="http://www.w3.org/2000/svg">
<path d="M150 0C66.875 0 0 66.875 0 150C0 233.125 66.875 300 150 300C233.125 300 300 233.125 300 150C300 66.875 233.125 0 150 0ZM233.75 112.5L138.125 209.375C134.375 213.125 128.125 213.125 124.375 209.375L71.875 156.25C68.125 152.5 68.125 146.25 71.875 142.5L85.625 128.75C89.375 125 95.625 125 99.375 128.75L126.875 156.875C129.375 159.375 133.75 159.375 136.25 156.875L206.25 84.375C210 80.625 216.25 80.625 220 84.375L233.75 98.125C238.125 101.875 238.125 108.125 233.75 112.5Z" fill="#28A745"/>
</svg>
