<svg width="300" height="274" viewBox="0 0 300 274" fill="none" xmlns="http://www.w3.org/2000/svg">
<path d="M294.003 205.584L188.9 23.5375C171.733 -6.53593 128.321 -6.53593 111.215 23.5375L6.05104 205.584C-11.1161 235.657 10.2502 273.017 44.8933 273.017H254.79C289.433 273.017 311.17 235.286 294.003 205.584ZM149.996 232.631C140.857 232.631 133.261 225.036 133.261 215.896C133.261 206.757 140.857 199.161 149.996 199.161C159.135 199.161 166.731 206.757 166.36 216.329C166.793 225.036 158.765 232.631 149.996 232.631ZM165.249 124.441C164.508 137.409 163.705 150.315 162.964 163.283C162.593 167.482 162.593 171.311 162.593 175.448C162.223 182.303 156.85 187.614 149.996 187.614C143.141 187.614 137.831 182.673 137.398 175.819C136.287 155.626 135.114 135.803 134.002 115.61C133.632 110.3 133.261 104.927 132.829 99.6164C132.829 90.8476 137.769 83.6226 145.797 81.3377C153.825 79.4234 161.791 83.2521 165.249 90.8476C166.422 93.503 166.793 96.1583 166.793 99.2459C166.422 107.706 165.619 116.104 165.249 124.441Z" fill="#FFC107"/>
</svg>
